HIERARCHY
ROOT Hips
{
  OFFSET 9.51162 15.2701 0.244827
  CHANNELS 6 Xposition Yposition Zposition Zrotation Xrotation Yrotation
  JOINT LHipJoint
  {
    OFFSET 0 1.60984 -0.00163934
    CHANNELS 6 Xposition Yposition Zposition Zrotation Xrotation Yrotation
    JOINT LeftUpLeg
    {
      OFFSET 1.74098 -1.60984 0.00163934
      CHANNELS 6 Xposition Yposition Zposition Zrotation Xrotation Yrotation
      JOINT LeftLeg
      {
        OFFSET -0.111475 -6.93934 -0.268852
        CHANNELS 6 Xposition Yposition Zposition Zrotation Xrotation Yrotation
        JOINT LeftFoot
        {
          OFFSET -0.103279 -6.4 -0.236066
          CHANNELS 6 Xposition Yposition Zposition Zrotation Xrotation Yrotation
          JOINT LeftToeBase
          {
            OFFSET 0.00983607 -1.60984 2.07377
            CHANNELS 6 Xposition Yposition Zposition Zrotation Xrotation Yrotation
            End Site
            {
              OFFSET 0 0 1.19016
            }
          }
        }
      }
    }
  }
  JOINT RHipJoint
  {
    OFFSET 0 1.60984 -0.00163934
    CHANNELS 6 Xposition Yposition Zposition Zrotation Xrotation Yrotation
    JOINT RightUpLeg
    {
      OFFSET -1.74098 -1.60984 0.00163934
      CHANNELS 6 Xposition Yposition Zposition Zrotation Xrotation Yrotation
      JOINT RightLeg
      {
        OFFSET 0.111475 -6.93934 -0.268852
        CHANNELS 6 Xposition Yposition Zposition Zrotation Xrotation Yrotation
        JOINT RightFoot
        {
          OFFSET 0.103279 -6.4 -0.236066
          CHANNELS 6 Xposition Yposition Zposition Zrotation Xrotation Yrotation
          JOINT RightToeBase
          {
            OFFSET -0.00983607 -1.60984 2.07377
            CHANNELS 6 Xposition Yposition Zposition Zrotation Xrotation Yrotation
            End Site
            {
              OFFSET 0 0 1.19016
            }
          }
        }
      }
    }
  }
  JOINT LowerBack
  {
    OFFSET 0 1.60984 -0.00163934
    CHANNELS 6 Xposition Yposition Zposition Zrotation Xrotation Yrotation
    JOINT Spine
    {
      OFFSET 0 2.29672 0.170492
      CHANNELS 6 Xposition Yposition Zposition Zrotation Xrotation Yrotation
      JOINT Spine1
      {
        OFFSET 0 2.28689 -0.265574
        CHANNELS 6 Xposition Yposition Zposition Zrotation Xrotation Yrotation
        JOINT Neck
        {
          OFFSET 0 2.42623 -0.0770492
          CHANNELS 6 Xposition Yposition Zposition Zrotation Xrotation Yrotation
          JOINT Neck1
          {
            OFFSET 0 1.77869 0.32459
            CHANNELS 6 Xposition Yposition Zposition Zrotation Xrotation Yrotation
            JOINT Head
            {
              OFFSET 0 0 0
              CHANNELS 6 Xposition Yposition Zposition Zrotation Xrotation Yrotation
              End Site
              {
                OFFSET 0 3.29016 0
              }
            }
          }
        }
        JOINT LeftShoulder
        {
          OFFSET 0.955738 2.42623 -0.0754098
          CHANNELS 6 Xposition Yposition Zposition Zrotation Xrotation Yrotation
          JOINT LeftArm
          {
            OFFSET 1.81967 -0.00819679 0
            CHANNELS 6 Xposition Yposition Zposition Zrotation Xrotation Yrotation
            JOINT LeftForeArm
            {
              OFFSET 4.0918 0.0114754 0
              CHANNELS 6 Xposition Yposition Zposition Zrotation Xrotation Yrotation
              JOINT LeftHand
              {
                OFFSET 5.08361 0.0245902 -0.0819672
                CHANNELS 6 Xposition Yposition Zposition Zrotation Xrotation Yrotation
                JOINT LeftFingerBase
                {
                  OFFSET 0 0 0
                  CHANNELS 6 Xposition Yposition Zposition Zrotation Xrotation Yrotation
                  JOINT LeftHandIndex1
                  {
                    OFFSET 1.7459 -0.111475 -0.0311475
                    CHANNELS 6 Xposition Yposition Zposition Zrotation Xrotation Yrotation
                    End Site
                    {
                      OFFSET 0.977049 -0.0622951 -0.0131148
                    }
                  }
                }
                JOINT LThumb
                {
                  OFFSET 0.952459 -0.347541 0.931148
                  CHANNELS 6 Xposition Yposition Zposition Zrotation Xrotation Yrotation
                  End Site
                  {
                    OFFSET 0.665574 -0.227869 0.0950819
                  }
                }
              }
            }
          }
        }
        JOINT RightShoulder
        {
          OFFSET -0.955738 2.42623 -0.0754098
          CHANNELS 6 Xposition Yposition Zposition Zrotation Xrotation Yrotation
          JOINT RightArm
          {
            OFFSET -1.81967 -0.00819679 0
            CHANNELS 6 Xposition Yposition Zposition Zrotation Xrotation Yrotation
            JOINT RightForeArm
            {
              OFFSET -4.0918 0.0114754 0
              CHANNELS 6 Xposition Yposition Zposition Zrotation Xrotation Yrotation
              JOINT RightHand
              {
                OFFSET -5.08361 0.0245902 -0.0819672
                CHANNELS 6 Xposition Yposition Zposition Zrotation Xrotation Yrotation
                JOINT RightFingerBase
                {
                  OFFSET 0 0 0
                  CHANNELS 6 Xposition Yposition Zposition Zrotation Xrotation Yrotation
                  JOINT RightHandIndex1
                  {
                    OFFSET -1.7459 -0.111475 -0.0311475
                    CHANNELS 6 Xposition Yposition Zposition Zrotation Xrotation Yrotation
                    End Site
                    {
                      OFFSET -0.977049 -0.0622951 -0.0131148
                    }
                  }
                }
                JOINT RThumb
                {
                  OFFSET -0.952459 -0.347541 0.931148
                  CHANNELS 6 Xposition Yposition Zposition Zrotation Xrotation Yrotation
                  End Site
                  {
                    OFFSET -0.665574 -0.227869 0.0950819
                  }
                }
              }
            }
          }
        }
      }
    }
  }
}
MOTION
Frames:	4
Frame Time:	0.0166667
9.51856 15.0141 0.268366 9.62961 5.05603 -86.7021 0 1.60984 -0.00163934 0 0 -0 1.74098 -1.60984 0.00163934 0.726406 -14.8865 -3.18775 -0.111475 -6.93934 -0.268852 0.00302025 15.2475 -0.241657 -0.103279 -6.4 -0.236066 5.69242 -7.49239 16.003 0.00983607 -1.60984 2.07377 -1.56507e-011 -1.08879e-010 3.86755e-012 0 1.60984 -0.00163934 0 0 -0 -1.74098 -1.60984 0.00163934 6.12179 -25.626 9.29908 0.111475 -6.93934 -0.268852 -0.109562 33.1031 0.57409 0.103279 -6.4 -0.236066 14.4755 -20.0903 -14.348 -0.00983607 -1.60984 2.07377 -2.96905e-012 -3.55347e-011 5.94764e-012 0 1.60984 -0.00163934 0 0 -0 0 2.29672 0.170492 2.80818 -1.92574 -0.141051 0 2.28689 -0.265574 5.6159 -3.85609 -0.187701 0 2.42623 -0.0770492 -1.26739 -3.00039 0.551411 0 1.77869 0.32459 -1.2674 -3.00039 0.551411 0 5.71282e-008 0 2.60108 0.089941 0.367025 0.955738 2.42623 -0.0754098 -27.0028 6.4097 -15.6828 1.81967 -0.00819679 1.1945e-009 -40.7267 23.3489 4.42814 4.0918 0.0114754 0 -2.57048 0.697181 -26.7632 5.08361 0.0245902 -0.0819672 5.64252 12.3476 -3.30599 0 0 0 7.49469e-010 -4.88947e-010 -3.60686e-010 1.7459 -0.111475 -0.0311475 1.3767e-009 -1.10795e-009 -7.98541e-010 0.952459 -0.347541 0.931148 0 0 -0 -0.955738 2.42623 -0.0754098 22.8847 5.00279 13.8047 -1.81967 -0.00819679 0 45.1935 47.8071 -19.6676 -4.0918 0.0114754 0 3.90193 1.69531 43.3689 -5.08361 0.0245902 -0.0819672 -7.16943 -22.5127 -10.7544 0 0 0 -8.35893e-010 -1.2235e-010 9.05218e-010 -1.7459 -0.111475 -0.0311475 -1.46298e-009 -2.25873e-010 1.53916e-009 -0.952459 -0.347541 0.931148 0 0 -0 
9.51552 15.0131 0.288059 9.55352 5.13653 -86.7087 0 1.60984 -0.00163934 0 0 -0 1.74098 -1.60984 0.00163934 0.722852 -14.6842 -2.85406 -0.111475 -6.93934 -0.268852 0.00180464 14.9691 -0.24134 -0.103279 -6.4 -0.236066 5.94549 -8.00964 16.0934 0.00983607 -1.60984 2.07377 -1.56507e-011 -1.08879e-010 3.86755e-012 0 1.60984 -0.00163934 0 0 -0 -1.74098 -1.60984 0.00163934 6.11976 -25.553 9.22002 0.111475 -6.93934 -0.268852 -0.109609 33.107 0.574116 0.103279 -6.4 -0.236066 14.3558 -19.9721 -14.3916 -0.00983607 -1.60984 2.07377 -2.96905e-012 -3.55347e-011 5.94764e-012 0 1.60984 -0.00163934 0 0 -0 0 2.29672 0.170492 2.81986 -1.90946 -0.157885 0 2.28689 -0.265574 5.63867 -3.82439 -0.221786 0 2.42623 -0.0770492 -1.31279 -2.94749 0.525908 0 1.77869 0.32459 -1.3128 -2.9475 0.525908 0 5.71282e-008 0 2.72653 0.0586527 0.194861 0.955738 2.42623 -0.0754098 -27.0694 6.41122 -15.6337 1.81967 -0.00819679 1.1945e-009 -40.7335 23.1459 4.5336 4.0918 0.0114754 0 -2.58352 0.704311 -26.911 5.08361 0.0245902 -0.0819672 5.62169 12.3028 -3.26774 0 0 0 7.49469e-010 -4.88947e-010 -3.60686e-010 1.7459 -0.111475 -0.0311475 1.3767e-009 -1.10795e-009 -7.98541e-010 0.952459 -0.347541 0.931148 0 0 -0 -0.955738 2.42623 -0.0754098 22.8765 5.00277 13.8056 -1.81967 -0.00819679 0 45.0384 47.9176 -19.4026 -4.0918 0.0114754 0 3.89653 1.68989 43.2929 -5.08361 0.0245902 -0.0819672 -7.05213 -22.4438 -10.7574 0 0 0 -8.35893e-010 -1.2235e-010 9.05218e-010 -1.7459 -0.111475 -0.0311475 -1.46298e-009 -2.25873e-010 1.53916e-009 -0.952459 -0.347541 0.931148 0 0 -0 
9.51138 15.0119 0.314203 9.43859 5.28094 -86.6775 0 1.60984 -0.00163934 0 0 -0 1.74098 -1.60984 0.00163934 0.787686 -14.5586 -2.28886 -0.111475 -6.93934 -0.268852 0.00177128 14.9656 -0.241265 -0.103279 -6.4 -0.236066 6.15089 -8.92959 15.8825 0.00983607 -1.60984 2.07377 -1.56507e-011 -1.08879e-010 3.86755e-012 0 1.60984 -0.00163934 0 0 -0 -1.74098 -1.60984 0.00163934 6.1725 -25.4341 9.14995 0.111475 -6.93934 -0.268852 -0.109417 33.0909 0.574011 0.103279 -6.4 -0.236066 14.0902 -19.7251 -14.6569 -0.00983607 -1.60984 2.07377 -2.96905e-012 -3.55347e-011 5.94764e-012 0 1.60984 -0.00163934 0 0 -0 0 2.29672 0.170492 2.85127 -1.88581 -0.192521 0 2.28689 -0.265574 5.70036 -3.77886 -0.291194 0 2.42623 -0.0770492 -1.29494 -2.93982 0.532257 0 1.77869 0.32459 -1.29495 -2.93982 0.532257 0 5.71282e-008 0 2.55145 0.214954 0.266273 0.955738 2.42623 -0.0754098 -27.1629 6.41296 -15.5775 1.81967 -0.00819679 1.1945e-009 -40.7672 22.9388 4.66579 4.0918 0.0114754 0 -2.5938 0.709943 -27.0278 5.08361 0.0245902 -0.0819672 5.65437 12.1556 -3.32026 0 0 0 7.49469e-010 -4.88947e-010 -3.60686e-010 1.7459 -0.111475 -0.0311475 1.3767e-009 -1.10795e-009 -7.98541e-010 0.952459 -0.347541 0.931148 0 0 -0 -0.955738 2.42623 -0.0754098 22.9102 5.00289 13.7999 -1.81967 -0.00819679 0 44.7979 47.8952 -19.1438 -4.0918 0.0114754 0 3.89897 1.69234 43.3273 -5.08361 0.0245902 -0.0819672 -7.00847 -22.1084 -10.8178 0 0 0 -8.35893e-010 -1.2235e-010 9.05218e-010 -1.7459 -0.111475 -0.0311475 -1.46298e-009 -2.25873e-010 1.53916e-009 -0.952459 -0.347541 0.931148 0 0 -0 
9.50859 15.0117 0.338889 9.36673 5.40975 -86.6274 0 1.60984 -0.00163934 0 0 -0 1.74098 -1.60984 0.00163934 0.893765 -14.4423 -1.71957 -0.111475 -6.93934 -0.268852 0.00162303 14.9403 -0.241089 -0.103279 -6.4 -0.236066 6.06712 -9.67802 15.3888 0.00983607 -1.60984 2.07377 -1.56507e-011 -1.08879e-010 3.86755e-012 0 1.60984 -0.00163934 0 0 -0 -1.74098 -1.60984 0.00163934 6.22978 -25.3604 9.09827 0.111475 -6.93934 -0.268852 -0.109078 33.0626 0.573826 0.103279 -6.4 -0.236066 13.719 -19.3875 -15.098 -0.00983607 -1.60984 2.07377 -2.96905e-012 -3.55347e-011 5.94764e-012 0 1.60984 -0.00163934 0 0 -0 0 2.29672 0.170492 2.87513 -1.87871 -0.22433 0 2.28689 -0.265574 5.74708 -3.7663 -0.354387 0 2.42623 -0.0770492 -1.26575 -2.94562 0.53899 0 1.77869 0.32459 -1.26575 -2.94563 0.53899 0 5.71282e-008 0 2.33426 0.410277 0.35871 0.955738 2.42623 -0.0754098 -27.2533 6.41371 -15.5535 1.81967 -0.00819679 1.1945e-009 -40.8041 22.8478 4.75455 4.0918 0.0114754 0 -2.58856 0.707067 -26.9683 5.08361 0.0245902 -0.0819672 5.85202 12.096 -3.38334 0 0 0 7.49469e-010 -4.88947e-010 -3.60686e-010 1.7459 -0.111475 -0.0311475 1.3767e-009 -1.10795e-009 -7.98541e-010 0.952459 -0.347541 0.931148 0 0 -0 -0.955738 2.42623 -0.0754098 22.9424 5.0006 13.7744 -1.81967 -0.00819679 0 44.5899 47.6325 -19.016 -4.0918 0.0114754 0 3.91505 1.70856 43.5541 -5.08361 0.0245902 -0.0819672 -7.01466 -21.7176 -10.8806 0 0 0 -8.35893e-010 -1.2235e-010 9.05218e-010 -1.7459 -0.111475 -0.0311475 -1.46298e-009 -2.25873e-010 1.53916e-009 -0.952459 -0.347541 0.931148 0 0 -0 
